<svg width="59" height="63" viewBox="0 0 59 63" fill="none" xmlns="http://www.w3.org/2000/svg">
<path d="M9.88379 23.3086L3.54004 21.7227L5.60742 0.765625H25.5166V7.5625H12.1211L11.3564 16.4268C11.7907 16.1247 12.4326 15.7943 13.2822 15.4355C14.1507 15.0768 15.1136 14.8975 16.1709 14.8975C17.8701 14.8975 19.3805 15.209 20.7021 15.832C22.0238 16.4551 23.1377 17.3613 24.0439 18.5508C24.9502 19.7402 25.6393 21.194 26.1113 22.9121C26.5833 24.6302 26.8193 26.5749 26.8193 28.7461C26.8193 30.5775 26.5645 32.3239 26.0547 33.9854C25.5638 35.6468 24.818 37.1195 23.8174 38.4033C22.8167 39.6872 21.5612 40.7067 20.0508 41.4619C18.5404 42.1982 16.7751 42.5664 14.7549 42.5664C13.2256 42.5664 11.7435 42.3021 10.3086 41.7734C8.89258 41.2448 7.61816 40.4613 6.48535 39.4229C5.35254 38.3656 4.44629 37.1006 3.7666 35.6279C3.08691 34.1364 2.74707 32.4372 2.74707 30.5303H10.5918C10.6673 31.6442 10.8844 32.6165 11.2432 33.4473C11.6208 34.2591 12.0928 34.8822 12.6592 35.3164C13.2445 35.7507 13.9242 35.9678 14.6982 35.9678C15.4535 35.9678 16.1048 35.779 16.6523 35.4014C17.1999 35.0049 17.6341 34.4574 17.9551 33.7588C18.276 33.0602 18.512 32.2484 18.6631 31.3232C18.8141 30.3792 18.8896 29.3691 18.8896 28.293C18.8896 27.1979 18.7858 26.2067 18.5781 25.3193C18.3893 24.432 18.0872 23.6768 17.6719 23.0537C17.2754 22.4118 16.7656 21.9209 16.1426 21.5811C15.5195 21.2223 14.7832 21.043 13.9336 21.043C12.7819 21.043 11.9134 21.2884 11.3281 21.7793C10.7617 22.2513 10.2803 22.7611 9.88379 23.3086ZM54.9414 18.8906V26.2539H31.209V18.8906H54.9414ZM46.8701 7.8457V37.8652H39.3652V7.8457H46.8701Z" fill="url(#paint0_linear_7653_483)"/>
<path d="M23.6697 54.6035V55.6494H20.7234V54.6035H23.6697ZM24.7498 54.6035V62H23.5466V54.6035H24.7498ZM20.4363 54.6035H21.6462L21.4753 58.1719C21.448 58.7233 21.4024 59.2109 21.3386 59.6348C21.2794 60.054 21.1951 60.4141 21.0857 60.7148C20.9809 61.0156 20.8487 61.2617 20.6892 61.4531C20.5343 61.64 20.3474 61.779 20.1287 61.8701C19.9145 61.9567 19.6661 62 19.3835 62H19.0212V60.8857L19.2605 60.8652C19.42 60.8516 19.5567 60.806 19.6707 60.7285C19.7891 60.651 19.8848 60.5371 19.9578 60.3867C20.0352 60.2318 20.0968 60.0335 20.1423 59.792C20.1925 59.5505 20.2312 59.2633 20.2585 58.9307C20.2859 58.598 20.3064 58.2106 20.3201 57.7686L20.4363 54.6035ZM29.3367 62.1367C28.8946 62.1367 28.4958 62.0706 28.1404 61.9385C27.7849 61.8063 27.4819 61.6058 27.2312 61.3369C26.9806 61.0635 26.7891 60.7194 26.657 60.3047C26.5248 59.89 26.4587 59.4001 26.4587 58.835V58.001C26.4587 57.3493 26.5339 56.7979 26.6843 56.3467C26.8393 55.8955 27.0466 55.5332 27.3064 55.2598C27.5662 54.9818 27.8601 54.7812 28.1882 54.6582C28.5164 54.5306 28.8536 54.4668 29.2 54.4668C29.6648 54.4668 30.0613 54.542 30.3894 54.6924C30.7175 54.8428 30.9841 55.0661 31.1892 55.3623C31.3943 55.6585 31.5447 56.0231 31.6404 56.4561C31.7406 56.889 31.7908 57.388 31.7908 57.9531V58.6572H27.1697V57.625H30.5808V57.4541C30.5626 57.0713 30.5102 56.734 30.4236 56.4424C30.3416 56.1507 30.2048 55.9229 30.0134 55.7588C29.822 55.5902 29.5509 55.5059 29.2 55.5059C28.9766 55.5059 28.7693 55.5446 28.5779 55.6221C28.391 55.695 28.2292 55.8249 28.0925 56.0117C27.9604 56.194 27.8556 56.4469 27.7781 56.7705C27.7052 57.0941 27.6687 57.5042 27.6687 58.001V58.835C27.6687 59.2314 27.7052 59.5732 27.7781 59.8604C27.8556 60.1429 27.9672 60.3776 28.113 60.5645C28.2634 60.7467 28.4457 60.8835 28.6599 60.9746C28.8787 61.0612 29.127 61.1045 29.405 61.1045C29.8106 61.1045 30.1456 61.027 30.4099 60.8721C30.6742 60.7126 30.9044 60.5098 31.1003 60.2637L31.7361 61.0225C31.6039 61.2093 31.4307 61.3893 31.2166 61.5625C31.0069 61.7311 30.7472 61.8701 30.4373 61.9795C30.1319 62.0843 29.7651 62.1367 29.3367 62.1367ZM35.8308 54.6035V62H34.6208V54.6035H35.8308ZM37.8474 54.6035V55.6289H32.6316V54.6035H37.8474Z" fill="#2E35AC"/>
<defs>
<linearGradient id="paint0_linear_7653_483" x1="0" y1="2" x2="25.2696" y2="50.5869" gradientUnits="userSpaceOnUse">
<stop stop-color="#D10A42"/>
<stop offset="1" stop-color="#0041CA"/>
</linearGradient>
</defs>
</svg>
