<svg width="72" height="74" viewBox="0 0 72 74" fill="none" xmlns="http://www.w3.org/2000/svg">
<path d="M12.0991 28.1191L4.3335 26.1777L6.86426 0.523438H31.2358V8.84375H14.8379L13.9019 19.6948C14.4334 19.325 15.2192 18.9206 16.2593 18.4814C17.3224 18.0423 18.5011 17.8228 19.7954 17.8228C21.8755 17.8228 23.7244 18.2041 25.3423 18.9668C26.9601 19.7295 28.3237 20.8389 29.4331 22.2949C30.5425 23.751 31.3861 25.5306 31.9639 27.6338C32.5417 29.737 32.8306 32.1175 32.8306 34.7754C32.8306 37.0173 32.5186 39.1551 31.8945 41.189C31.2936 43.2228 30.3807 45.0256 29.1558 46.5972C27.9308 48.1688 26.3939 49.4168 24.5449 50.3413C22.696 51.2427 20.535 51.6934 18.062 51.6934C16.1899 51.6934 14.3757 51.3698 12.6191 50.7227C10.8857 50.0755 9.32568 49.1164 7.93896 47.8452C6.55225 46.5509 5.44287 45.0024 4.61084 43.1997C3.77881 41.3739 3.36279 39.2938 3.36279 36.9595H12.9658C13.0583 38.3231 13.3241 39.5133 13.7632 40.5303C14.2254 41.5241 14.8032 42.2868 15.4966 42.8184C16.2131 43.3499 17.0451 43.6157 17.9927 43.6157C18.9172 43.6157 19.7145 43.3846 20.3848 42.9224C21.055 42.437 21.5866 41.7668 21.9795 40.9116C22.3724 40.0565 22.6613 39.0627 22.8462 37.9302C23.0311 36.7746 23.1235 35.5381 23.1235 34.2207C23.1235 32.8802 22.9964 31.6668 22.7422 30.5806C22.5111 29.4943 22.1413 28.5698 21.6328 27.8071C21.1475 27.0213 20.5234 26.4204 19.7607 26.0044C18.998 25.5653 18.0967 25.3457 17.0566 25.3457C15.6468 25.3457 14.5837 25.6462 13.8672 26.2471C13.1738 26.8249 12.5845 27.4489 12.0991 28.1191ZM67.2559 22.7109V31.7246H38.2041V22.7109H67.2559ZM57.3755 9.19043V45.9385H48.1885V9.19043H57.3755Z" fill="url(#paint0_linear_15598_345)"/>
<path d="M5.03809 65.6035V66.6494H2.0918V65.6035H5.03809ZM6.11816 65.6035V73H4.91504V65.6035H6.11816ZM1.80469 65.6035H3.01465L2.84375 69.1719C2.81641 69.7233 2.77083 70.2109 2.70703 70.6348C2.64779 71.054 2.56348 71.4141 2.4541 71.7148C2.34928 72.0156 2.21712 72.2617 2.05762 72.4531C1.90267 72.64 1.71582 72.779 1.49707 72.8701C1.28288 72.9567 1.03451 73 0.751953 73H0.389648V71.8857L0.628906 71.8652C0.788411 71.8516 0.92513 71.806 1.03906 71.7285C1.15755 71.651 1.25326 71.5371 1.32617 71.3867C1.40365 71.2318 1.46517 71.0335 1.51074 70.792C1.56087 70.5505 1.59961 70.2633 1.62695 69.9307C1.6543 69.598 1.6748 69.2106 1.68848 68.7686L1.80469 65.6035ZM10.7051 73.1367C10.263 73.1367 9.86426 73.0706 9.50879 72.9385C9.15332 72.8063 8.85026 72.6058 8.59961 72.3369C8.34896 72.0635 8.15755 71.7194 8.02539 71.3047C7.89323 70.89 7.82715 70.4001 7.82715 69.835V69.001C7.82715 68.3493 7.90234 67.7979 8.05273 67.3467C8.20768 66.8955 8.41504 66.5332 8.6748 66.2598C8.93457 65.9818 9.22852 65.7812 9.55664 65.6582C9.88477 65.5306 10.222 65.4668 10.5684 65.4668C11.0332 65.4668 11.4297 65.542 11.7578 65.6924C12.0859 65.8428 12.3525 66.0661 12.5576 66.3623C12.7627 66.6585 12.9131 67.0231 13.0088 67.4561C13.109 67.889 13.1592 68.388 13.1592 68.9531V69.6572H8.53809V68.625H11.9492V68.4541C11.931 68.0713 11.8786 67.734 11.792 67.4424C11.71 67.1507 11.5732 66.9229 11.3818 66.7588C11.1904 66.5902 10.9193 66.5059 10.5684 66.5059C10.3451 66.5059 10.1377 66.5446 9.94629 66.6221C9.75944 66.695 9.59766 66.8249 9.46094 67.0117C9.32878 67.194 9.22396 67.4469 9.14648 67.7705C9.07357 68.0941 9.03711 68.5042 9.03711 69.001V69.835C9.03711 70.2314 9.07357 70.5732 9.14648 70.8604C9.22396 71.1429 9.33561 71.3776 9.48145 71.5645C9.63184 71.7467 9.81413 71.8835 10.0283 71.9746C10.2471 72.0612 10.4954 72.1045 10.7734 72.1045C11.179 72.1045 11.514 72.027 11.7783 71.8721C12.0426 71.7126 12.2728 71.5098 12.4688 71.2637L13.1045 72.0225C12.9723 72.2093 12.7992 72.3893 12.585 72.5625C12.3753 72.7311 12.1156 72.8701 11.8057 72.9795C11.5003 73.0843 11.1335 73.1367 10.7051 73.1367ZM17.1992 65.6035V73H15.9893V65.6035H17.1992ZM19.2158 65.6035V66.6289H14V65.6035H19.2158Z" fill="#2E35AC"/>
<defs>
<linearGradient id="paint0_linear_15598_345" x1="0" y1="2" x2="31.023" y2="61.4222" gradientUnits="userSpaceOnUse">
<stop stop-color="#D10A42"/>
<stop offset="1" stop-color="#0041CA"/>
</linearGradient>
</defs>
</svg>
