<svg width="59" height="63" viewBox="0 0 59 63" fill="none" xmlns="http://www.w3.org/2000/svg">
<path d="M9.88379 23.3086L3.54004 21.7227L5.60742 0.765625H25.5166V7.5625H12.1211L11.3564 16.4268C11.7907 16.1247 12.4326 15.7943 13.2822 15.4355C14.1507 15.0768 15.1136 14.8975 16.1709 14.8975C17.8701 14.8975 19.3805 15.209 20.7021 15.832C22.0238 16.4551 23.1377 17.3613 24.0439 18.5508C24.9502 19.7402 25.6393 21.194 26.1113 22.9121C26.5833 24.6302 26.8193 26.5749 26.8193 28.7461C26.8193 30.5775 26.5645 32.3239 26.0547 33.9854C25.5638 35.6468 24.818 37.1195 23.8174 38.4033C22.8167 39.6872 21.5612 40.7067 20.0508 41.4619C18.5404 42.1982 16.7751 42.5664 14.7549 42.5664C13.2256 42.5664 11.7435 42.3021 10.3086 41.7734C8.89258 41.2448 7.61816 40.4613 6.48535 39.4229C5.35254 38.3656 4.44629 37.1006 3.7666 35.6279C3.08691 34.1364 2.74707 32.4372 2.74707 30.5303H10.5918C10.6673 31.6442 10.8844 32.6165 11.2432 33.4473C11.6208 34.2591 12.0928 34.8822 12.6592 35.3164C13.2445 35.7507 13.9242 35.9678 14.6982 35.9678C15.4535 35.9678 16.1048 35.779 16.6523 35.4014C17.1999 35.0049 17.6341 34.4574 17.9551 33.7588C18.276 33.0602 18.512 32.2484 18.6631 31.3232C18.8141 30.3792 18.8896 29.3691 18.8896 28.293C18.8896 27.1979 18.7858 26.2067 18.5781 25.3193C18.3893 24.432 18.0872 23.6768 17.6719 23.0537C17.2754 22.4118 16.7656 21.9209 16.1426 21.5811C15.5195 21.2223 14.7832 21.043 13.9336 21.043C12.7819 21.043 11.9134 21.2884 11.3281 21.7793C10.7617 22.2513 10.2803 22.7611 9.88379 23.3086ZM54.9414 18.8906V26.2539H31.209V18.8906H54.9414ZM46.8701 7.8457V37.8652H39.3652V7.8457H46.8701Z" fill="url(#paint0_linear_7653_313)"/>
<path d="M5.03809 54.6035V55.6494H2.0918V54.6035H5.03809ZM6.11816 54.6035V62H4.91504V54.6035H6.11816ZM1.80469 54.6035H3.01465L2.84375 58.1719C2.81641 58.7233 2.77083 59.2109 2.70703 59.6348C2.64779 60.054 2.56348 60.4141 2.4541 60.7148C2.34928 61.0156 2.21712 61.2617 2.05762 61.4531C1.90267 61.64 1.71582 61.779 1.49707 61.8701C1.28288 61.9567 1.03451 62 0.751953 62H0.389648V60.8857L0.628906 60.8652C0.788411 60.8516 0.92513 60.806 1.03906 60.7285C1.15755 60.651 1.25326 60.5371 1.32617 60.3867C1.40365 60.2318 1.46517 60.0335 1.51074 59.792C1.56087 59.5505 1.59961 59.2633 1.62695 58.9307C1.6543 58.598 1.6748 58.2106 1.68848 57.7686L1.80469 54.6035ZM10.7051 62.1367C10.263 62.1367 9.86426 62.0706 9.50879 61.9385C9.15332 61.8063 8.85026 61.6058 8.59961 61.3369C8.34896 61.0635 8.15755 60.7194 8.02539 60.3047C7.89323 59.89 7.82715 59.4001 7.82715 58.835V58.001C7.82715 57.3493 7.90234 56.7979 8.05273 56.3467C8.20768 55.8955 8.41504 55.5332 8.6748 55.2598C8.93457 54.9818 9.22852 54.7812 9.55664 54.6582C9.88477 54.5306 10.222 54.4668 10.5684 54.4668C11.0332 54.4668 11.4297 54.542 11.7578 54.6924C12.0859 54.8428 12.3525 55.0661 12.5576 55.3623C12.7627 55.6585 12.9131 56.0231 13.0088 56.4561C13.109 56.889 13.1592 57.388 13.1592 57.9531V58.6572H8.53809V57.625H11.9492V57.4541C11.931 57.0713 11.8786 56.734 11.792 56.4424C11.71 56.1507 11.5732 55.9229 11.3818 55.7588C11.1904 55.5902 10.9193 55.5059 10.5684 55.5059C10.3451 55.5059 10.1377 55.5446 9.94629 55.6221C9.75944 55.695 9.59766 55.8249 9.46094 56.0117C9.32878 56.194 9.22396 56.4469 9.14648 56.7705C9.07357 57.0941 9.03711 57.5042 9.03711 58.001V58.835C9.03711 59.2314 9.07357 59.5732 9.14648 59.8604C9.22396 60.1429 9.33561 60.3776 9.48145 60.5645C9.63184 60.7467 9.81413 60.8835 10.0283 60.9746C10.2471 61.0612 10.4954 61.1045 10.7734 61.1045C11.179 61.1045 11.514 61.027 11.7783 60.8721C12.0426 60.7126 12.2728 60.5098 12.4688 60.2637L13.1045 61.0225C12.9723 61.2093 12.7992 61.3893 12.585 61.5625C12.3753 61.7311 12.1156 61.8701 11.8057 61.9795C11.5003 62.0843 11.1335 62.1367 10.7051 62.1367ZM17.1992 54.6035V62H15.9893V54.6035H17.1992ZM19.2158 54.6035V55.6289H14V54.6035H19.2158Z" fill="#2E35AC"/>
<defs>
<linearGradient id="paint0_linear_7653_313" x1="0" y1="2" x2="25.2696" y2="50.5869" gradientUnits="userSpaceOnUse">
<stop stop-color="#D10A42"/>
<stop offset="1" stop-color="#0041CA"/>
</linearGradient>
</defs>
</svg>
